<?xml version="1.0" encoding="utf-8"?>
<!-- Generator: Adobe Illustrator 24.3.0, SVG Export Plug-In . SVG Version: 6.00 Build 0)  -->
<svg version="1.1" id="图层_1" xmlns="http://www.w3.org/2000/svg" xmlns:xlink="http://www.w3.org/1999/xlink" x="0px" y="0px"
	 viewBox="0 0 275.68 145.95" style="enable-background:new 0 0 275.68 145.95;" xml:space="preserve">
<style type="text/css">
	.st0{fill:#003B71;}
</style>
<g>
	<g>
		<g>
			<g>
				<path class="st0" d="M185.43,94.38h-5.34v1.65h16.03v-1.65h-4.31V66.45c-1.34,1.37-3.47,1.51-5.6,1.51h-5.31v1.64h4.53V94.38"/>
				<path class="st0" d="M84.13,94.38H78.8v1.65h16.02v-1.65h-4.3V66.45c-1.34,1.37-3.47,1.51-5.6,1.51h-5.3v1.64h4.52V94.38"/>
				<path class="st0" d="M203.95,94.37h-5.14v1.66h16.27v-1.66h-4.69V69.58h11.49v24.78h-4.29v1.66h15.83v-1.66h-5.14V66.44
					c-1.35,1.37-3.66,1.51-5.79,1.51H210.4v-9.32c0-6.25,2.29-11.23,9.42-11.23c2.83,0,4.91,1.15,4.91,2.34
					c0,0.8-0.71,1.06-1.26,1.37c-0.86,0.48-1.68,1.34-1.68,2.64c0,1.78,1.71,2.96,3.19,2.96c2.16,0,3.76-1.72,3.76-4.26
					c0-2.98-3.08-6.75-9.53-6.75c-11.21,0-15.25,9.1-15.25,17.73v4.52h-5.81v1.64h5.81V94.37"/>
				<path class="st0" d="M34.13,75.51c6.95,1.44,10.09,5.63,10.09,10.22c0,5.25-4.21,9.53-10.62,9.53c-6.54,0-12.89-5.33-13.91-16.1
					h-1.8v17.33h1.8c0.13-1.15,0.62-2.03,2-2.03c2.57,0,5.34,2.71,12.01,2.71c9.67,0,15-5.85,15-14.82
					c0-7.01-3.52-12.22-12.81-14.49l-3.55-0.83c-8.19-1.9-10.59-5.66-10.59-9.51c0-5.25,4.07-8.8,9-8.8
					c7.7,0,12.26,6.24,13.21,14.01h1.91V48.35h-1.73c-0.2,0.89-0.64,1.77-2.02,1.77c-2.35,0-4.31-3.35-11.54-3.35
					c-7.19,0-12.92,5.28-12.92,13.09c0,8.4,4.19,12.8,12.97,14.85L34.13,75.51"/>
				<path class="st0" d="M163.69,90.75c0,4.69,3.22,6.41,7.49,6.41c5.11,0,6.81-2.79,7.63-4.54l-1.31-0.89
					c-0.81,1.42-2.12,3.18-4.35,3.18c-1.72,0-3.09-0.87-3.09-3.54V69.58h7.46v-1.64h-7.45V59.4h-1.26
					c-1.12,6.66-4.22,8.54-10.49,8.54v1.64h5.37V90.75"/>
				<path class="st0" d="M143.38,94.37h4.76v-20.8c0-3.33-1.81-4.69-4.14-4.69c-4.18,0-7.32,4-8.74,5.97v19.52h4.9v1.65h-16.3v-1.65
					h5.02V69.58h-5.02v-1.64h5.27c3.2,0,4.73-0.01,5.93-1.51V72h0.14c1.38-1.64,4.65-5.56,10.33-5.56c6.02,0,9,3.92,9,8.63v19.3
					h5.02v1.65h-16.17V94.37"/>
				<path class="st0" d="M75.14,86.77c-0.72,3.63-3.61,8.11-8.59,8.11c-4.86,0-7.19-2.87-7.19-9.24v-6.45
					c0-6.25,2.29-10.69,7.54-10.69c3.13,0,4.87,1.53,4.87,2.73c0,0.65-0.43,1.02-0.83,1.5c-0.42,0.49-0.84,1.11-0.84,2.04
					c0,1.44,1.11,2.85,3.12,2.85c1.87,0,3.4-1.48,3.4-3.78c0-3.39-4.02-6.97-10.28-6.97c-7.9,0-14.04,6.05-14.04,15.2
					c0,8.35,4.3,15.19,13.51,15.19c6.24,0,10.23-5.05,11.08-10.47H75.14"/>
				<path class="st0" d="M256.21,86.69c-0.71,3.63-3.61,8.11-8.59,8.11c-4.86,0-7.19-2.87-7.19-9.24v-6.45
					c0-6.24,2.29-10.69,7.55-10.69c3.13,0,4.87,1.54,4.87,2.73c0,0.66-0.43,1.03-0.83,1.5c-0.42,0.49-0.83,1.11-0.83,2.05
					c0,1.44,1.1,2.84,3.12,2.84c1.87,0,3.4-1.48,3.4-3.79c0-3.39-4.03-6.97-10.29-6.97c-7.89,0-14.04,6.05-14.04,15.2
					c0,8.35,4.3,15.18,13.51,15.18c6.25,0,10.24-5.05,11.08-10.47H256.21"/>
				<path class="st0" d="M119.8,86.62c-0.75,4.07-3.76,8.24-8.47,8.24c-4.76,0-7.21-2.91-7.21-8.77v-6.63h17.41
					c0.4,0,0.6-0.21,0.6-0.62c0-0.33-0.01-0.66-0.01-1.01c0-4.26-3.83-11.05-12.3-11.05c-7.39,0-12.8,7.24-12.8,15.19
					c0,9.49,5.52,15.19,13.1,15.19c5.96,0,10.35-4.21,11.47-10.54H119.8z M115.78,77.24c0,0.27-0.13,0.47-0.45,0.47H104.4v-2.1
					c0-4.46,2.31-7.2,5.77-7.2c3.55,0,5.61,2.53,5.61,7.2V77.24"/>
				<path class="st0" d="M60.04,17.12h1.68c6.47,0,9.91,3.64,9.91,8.16c0,6.46-4.36,8.67-9.68,8.67h-1.91V17.12z M53.48,55.11h-4.39
					v1.56H66.9c6.05,0,13.21-3.45,13.21-11.52c0-6.42-5.74-9.86-11.37-10.18v-0.29c4.76-0.41,9.54-3.48,9.54-9.81
					c0-5.48-4.67-9.27-13.18-9.27H49.06v1.53h4.42V55.11z M60.04,35.52h3.1c6.53,0,10.08,4.28,10.08,9.6c0,5.82-3.51,9.99-9.5,9.99
					h-3.68V35.52"/>
				<path class="st0" d="M82.8,44.34c0,7.28,5.13,13.33,12.39,13.33c7.25,0,12.39-6.11,12.39-13.33c0-7.25-5.14-13.32-12.39-13.32
					C87.93,31.02,82.8,37.02,82.8,44.34z M101.34,45.85c0,5.06-0.6,10.06-6.16,10.06c-5.56,0-6.16-5-6.16-10.06v-3.01
					c0-5.07,0.47-10.07,6.16-10.07c5.85,0,6.16,5,6.16,10.07V45.85"/>
				<path class="st0" d="M146.42,44.35c0,7.28,5.14,13.32,12.39,13.32c7.25,0,12.39-6.11,12.39-13.32c0-7.26-5.14-13.33-12.39-13.33
					C151.56,31.02,146.42,37.04,146.42,44.35z M164.97,45.85c0,5.07-0.61,10.07-6.16,10.07c-5.57,0-6.16-5-6.16-10.07v-3.01
					c0-5.07,0.47-10.06,6.16-10.06c5.83,0,6.16,5,6.16,10.06V45.85"/>
				<path class="st0" d="M188.94,55.12h3.52V37.66c0-2.94-1.9-4.13-3.91-4.13c-2.64,0-5.37,2.55-6.62,5.25v16.34h4.3v1.57h-14.96
					v-1.57h4.71V33.61h-4.57v-1.53h4.44c2.7,0,4.92,0,5.93-1.32v4.77h0.11c2.32-2.81,5.46-4.77,9.09-4.77c5.66,0,7.63,4.03,7.63,7.4
					v16.96h3.36v1.57h-13.02V55.12"/>
				<path class="st0" d="M119.43,46.63c3.4,0.48,4.84,2.49,4.84,4.66c0,3.08-2.49,4.71-5.24,4.71c-5.27,0-7.17-4.67-7.47-7.76h-1.34
					l0.17,9.07h1.3c0.1-0.94,0.41-1.31,1.01-1.31c1.23,0,2.69,1.67,6.41,1.67c5.52,0,8.89-3.45,8.89-8.65
					c0-3.72-2.11-7.08-6.83-7.77l-2.83-0.48c-3.71-0.62-5.01-1.9-5.01-4.1c0-2.15,1.82-4,4.97-4c3.65,0,5.77,2.28,6.36,5.85h1.27
					l-0.14-7.14h-1.13c-0.07,0.53-0.29,1.08-0.88,1.08c-1.04,0-2.47-1.43-5.56-1.43c-4.38,0-7.76,3.07-7.76,7.39
					c0,5.48,3.58,7.48,7.33,8L119.43,46.63"/>
				<path class="st0" d="M145.78,52.84c-0.58,0.98-1.83,2.47-3.7,2.47c-1.55,0-2.93-0.69-2.93-3.15V33.6h6.61v-1.53h-6.61v-8.41
					h-1.13c-0.96,5.89-4.27,8.41-9.02,8.41v1.53h4.18v18.48c0,4.04,2.87,5.61,6.89,5.61c3.71,0,5.64-1.89,6.64-3.45L145.78,52.84"/>
			</g>
		</g>
		<g>
			<path class="st0" d="M50.35,109.2c0,0.78-0.06,1.92-0.18,3.42c-0.06,0.3-0.09,0.54-0.09,0.72h8.55c1.56-0.06,2.31,0.69,2.25,2.25
				c0,3.6-0.21,7.05-0.63,10.35c-0.06,3.6-2.4,4.8-7.02,3.6c-0.54-0.12-0.75-0.48-0.63-1.08c0.12-0.6,0.45-0.87,0.99-0.81
				c3.18,0.84,4.8,0.03,4.86-2.43c0.36-2.52,0.54-5.58,0.54-9.18c0-0.6-0.3-0.9-0.9-0.9H49.9c-1.26,7.56-3.75,12.54-7.47,14.94
				c-0.6,0.36-1.08,0.36-1.44,0c-0.24-0.42-0.12-0.87,0.36-1.35c3.42-2.4,5.64-6.9,6.66-13.5h-5.58c-0.54-0.06-0.84-0.39-0.9-0.99
				c0.06-0.54,0.36-0.84,0.9-0.9h5.85c0-0.3,0.03-0.75,0.09-1.35c0.06-0.96,0.12-1.92,0.18-2.88c0.06-0.54,0.39-0.84,0.99-0.9
				C50.08,108.33,50.35,108.66,50.35,109.2z M45.4,112.71c-0.24-0.42-0.69-1.02-1.35-1.8c-0.12-0.12-0.21-0.21-0.27-0.27
				c-0.36-0.42-0.39-0.81-0.09-1.17c0.42-0.3,0.84-0.27,1.26,0.09c0.72,0.6,1.32,1.32,1.8,2.16c0.3,0.54,0.27,0.96-0.09,1.26
				C46.17,113.28,45.76,113.19,45.4,112.71z M52.42,117.84c1.26,1.2,2.49,2.58,3.69,4.14c0.42,0.6,0.42,1.08,0,1.44
				c-0.48,0.36-0.96,0.27-1.44-0.27c-1.38-1.8-2.52-3.15-3.42-4.05c-0.36-0.42-0.39-0.84-0.09-1.26
				C51.58,117.48,52,117.48,52.42,117.84z"/>
			<path class="st0" d="M95.07,109.38v3.6h7.92c0.48,0,0.72,0.3,0.72,0.9c0,0.6-0.24,0.9-0.72,0.9h-7.92v5.49h7.47
				c0.48,0,0.72,0.3,0.72,0.9c0,0.6-0.24,0.9-0.72,0.9h-7.47v5.58h8.82c0.48,0,0.75,0.3,0.81,0.9c-0.06,0.6-0.33,0.9-0.81,0.9H84.18
				c-0.54,0-0.84-0.3-0.9-0.9c0.06-0.6,0.36-0.9,0.9-0.9h9v-5.58h-7.02c-0.54,0-0.84-0.3-0.9-0.9c0.06-0.6,0.36-0.9,0.9-0.9h7.02
				v-5.49h-5.85c-0.84,1.56-1.62,2.76-2.34,3.6c-0.48,0.48-0.93,0.54-1.35,0.18c-0.42-0.42-0.45-0.87-0.09-1.35
				c1.98-2.34,3.09-4.71,3.33-7.11c0.12-0.6,0.48-0.87,1.08-0.81c0.6,0.18,0.84,0.57,0.72,1.17c-0.18,1.02-0.39,1.86-0.63,2.52h5.13
				v-3.6c0.06-0.48,0.39-0.75,0.99-0.81C94.71,108.63,95.01,108.9,95.07,109.38z"/>
			<path class="st0" d="M136.64,108.39c0.42,0,1.11,0.39,2.07,1.17c2.4,2.04,5.13,3.54,8.19,4.5c0.48,0.24,0.69,0.66,0.63,1.26
				c-0.18,0.54-0.54,0.75-1.08,0.63c-3.18-1.02-6.06-2.58-8.64-4.68c-0.54-0.48-0.87-0.72-0.99-0.72c-0.3,0-0.78,0.3-1.44,0.9
				c-2.16,1.86-5.07,3.33-8.73,4.41c-0.6,0.18-0.99,0-1.17-0.54c-0.12-0.6,0.09-0.99,0.63-1.17c3.18-0.9,6.12-2.46,8.82-4.68
				C135.77,108.75,136.34,108.39,136.64,108.39z M129.17,117.21h4.59c1.08,0.06,1.65,0.72,1.71,1.98v6.48
				c0.18,1.5-0.57,2.16-2.25,1.98h-3.87c-1.68,0.18-2.43-0.45-2.25-1.89v-6.57C126.98,117.75,127.67,117.09,129.17,117.21z
				 M129.71,118.92c-0.6-0.06-0.87,0.18-0.81,0.72v5.58c0,0.6,0.33,0.9,0.99,0.9h2.97c0.54,0,0.81-0.24,0.81-0.72v-5.85
				c-0.06-0.36-0.24-0.57-0.54-0.63H129.71z M133.04,113.79h7.47c0.54,0.06,0.81,0.36,0.81,0.9c-0.12,0.54-0.45,0.81-0.99,0.81h-7.2
				c-0.54,0-0.84-0.27-0.9-0.81C132.23,114.15,132.5,113.85,133.04,113.79z M144.11,117.21c1.38,0,2.04,0.54,1.98,1.62v6.48
				c0.06,2.7-1.89,3.54-5.85,2.52c-0.6-0.18-0.84-0.54-0.72-1.08c0.18-0.54,0.57-0.75,1.17-0.63c2.52,0.84,3.72,0.39,3.6-1.35v-4.86
				c0-0.66-0.36-0.99-1.08-0.99h-3.69c-0.42,0-0.63,0.21-0.63,0.63v9.81c0,0.54-0.3,0.84-0.9,0.9c-0.6-0.06-0.9-0.36-0.9-0.9v-10.44
				c-0.06-1.14,0.72-1.71,2.34-1.71H144.11z"/>
			<path class="st0" d="M176.59,109.38c2.28,1.92,4.08,3.75,5.4,5.49c0.42,0.6,0.39,1.11-0.09,1.53c-0.54,0.3-1.02,0.18-1.44-0.36
				c-2.04-2.7-3.72-4.41-5.04-5.13c-0.06,0-0.3,0.3-0.72,0.9c-1.62,2.76-3.39,4.65-5.31,5.67c-0.54,0.3-0.96,0.24-1.26-0.18
				c-0.24-0.54-0.09-0.96,0.45-1.26c1.98-1.2,3.81-3.36,5.49-6.48C174.61,108.48,175.45,108.42,176.59,109.38z M178.3,116.4
				c1.02,0,1.53,0.45,1.53,1.35v4.23c-0.06,2.04-1.62,2.91-4.68,2.61c-0.54-0.12-0.84-0.42-0.9-0.9c0.12-0.54,0.45-0.81,0.99-0.81
				c1.98,0.3,2.91-0.18,2.79-1.44v-2.7c0-0.42-0.15-0.63-0.45-0.63h-4.59c-0.36-0.06-0.57,0.18-0.63,0.72v8.1
				c-0.06,0.6,0.27,0.87,0.99,0.81h4.68c0.78-0.12,1.23-0.63,1.35-1.53c0.06-0.54,0.36-0.81,0.9-0.81c0.48,0.12,0.72,0.45,0.72,0.99
				c-0.06,2.1-0.9,3.09-2.52,2.97h-5.85c-1.26-0.06-1.92-0.66-1.98-1.8v-9.45c0.06-1.08,0.51-1.65,1.35-1.71H178.3z M184.34,111.72
				v12.42c0,0.6-0.27,0.93-0.81,0.99c-0.6-0.06-0.9-0.39-0.9-0.99v-12.42c0-0.72,0.3-1.11,0.9-1.17
				C184.07,110.61,184.34,111,184.34,111.72z M188.48,109.74v18c0.42,2.1-1.2,2.76-4.86,1.98c-0.54-0.18-0.78-0.54-0.72-1.08
				c0.12-0.54,0.48-0.75,1.08-0.63c2.16,0.48,3.09,0.3,2.79-0.54v-17.64c0-0.72,0.27-1.11,0.81-1.17
				C188.12,108.72,188.42,109.08,188.48,109.74z"/>
			<path class="st0" d="M215.47,123.87c-0.6,1.56-1.59,3.09-2.97,4.59c-0.42,0.48-0.84,0.57-1.26,0.27
				c-0.48-0.36-0.54-0.75-0.18-1.17c1.26-1.5,2.19-2.97,2.79-4.41c0.3-0.54,0.72-0.72,1.26-0.54
				C215.59,122.85,215.7,123.27,215.47,123.87z M217.99,116.76c0.42-0.72,0.84-1.8,1.26-3.24c0.18-0.54,0.57-0.72,1.17-0.54
				c0.54,0.24,0.72,0.63,0.54,1.17c-0.12,0.24-0.3,0.66-0.54,1.26c-0.24,0.66-0.42,1.11-0.54,1.35h2.25c0.54,0,0.84,0.27,0.9,0.81
				c0,0.48-0.27,0.75-0.81,0.81h-4.23v2.25h4.14c0.6,0,0.9,0.27,0.9,0.81c-0.06,0.54-0.39,0.81-0.99,0.81h-4.05v5.67
				c0.36,2.1-0.99,2.7-4.05,1.8c-0.54-0.12-0.78-0.45-0.72-0.99c0.12-0.6,0.45-0.84,0.99-0.72c1.74,0.6,2.46,0.42,2.16-0.54v-5.22
				h-4.23c-0.54,0-0.81-0.27-0.81-0.81c0-0.48,0.27-0.75,0.81-0.81h4.23v-2.25h-4.14c-0.54,0-0.84-0.24-0.9-0.72
				c0-0.54,0.27-0.84,0.81-0.9H217.99z M221.41,111.09c0.54,0,0.81,0.27,0.81,0.81c0,0.48-0.27,0.75-0.81,0.81h-9
				c-0.48,0-0.75-0.27-0.81-0.81c0.06-0.54,0.33-0.81,0.81-0.81h3.51c-0.06-0.12-0.15-0.33-0.27-0.63
				c-0.12-0.24-0.21-0.42-0.27-0.54c-0.3-0.54-0.21-0.96,0.27-1.26c0.48-0.24,0.9-0.09,1.26,0.45c0.12,0.18,0.3,0.51,0.54,0.99
				c0.24,0.48,0.42,0.81,0.54,0.99H221.41z M214.84,113.52c0.18,0.3,0.36,0.66,0.54,1.08c0.18,0.3,0.3,0.51,0.36,0.63
				c0.24,0.54,0.15,0.96-0.27,1.26c-0.54,0.18-0.93,0.03-1.17-0.45c-0.36-0.78-0.66-1.35-0.9-1.71c-0.24-0.48-0.15-0.87,0.27-1.17
				C214.14,112.92,214.53,113.04,214.84,113.52z M220.15,122.88c0.36,0.36,0.84,0.99,1.44,1.89c0.12,0.18,0.21,0.3,0.27,0.36
				c0.36,0.42,0.36,0.81,0,1.17c-0.48,0.36-0.9,0.33-1.26-0.09c-0.06-0.12-0.18-0.3-0.36-0.54c-0.6-0.84-1.05-1.41-1.35-1.71
				c-0.36-0.42-0.36-0.81,0-1.17C219.37,122.43,219.79,122.46,220.15,122.88z M231.4,109.65c0.66-0.12,1.08,0.09,1.26,0.63
				c0.12,0.6-0.12,0.99-0.72,1.17c-1.8,0.36-3.6,0.63-5.4,0.81c-0.72,0.06-1.05,0.42-0.99,1.08v2.79h6.57
				c1.08,0.6,1.11,1.26,0.09,1.98h-2.16v11.25c0,0.6-0.3,0.93-0.9,0.99c-0.6-0.06-0.9-0.39-0.9-0.99v-11.25h-2.7v4.77
				c-0.24,3.12-1.65,5.46-4.23,7.02c-0.48,0.24-0.9,0.12-1.26-0.36c-0.3-0.54-0.21-0.96,0.27-1.26c2.28-1.44,3.42-3.33,3.42-5.67
				v-10.35c0.06-1.14,0.66-1.68,1.8-1.62C228.37,110.28,230.32,109.95,231.4,109.65z"/>
		</g>
	</g>
</g>
</svg>
